<svg width="96" height="32" viewBox="0 0 96 32" fill="none" xmlns="http://www.w3.org/2000/svg">
<path d="M48.5901 21.145H45.6069C45.5104 21.145 45.4298 21.2168 45.4128 21.3124C45.0871 23.1596 43.7924 24.0638 41.9564 24.0638C39.4508 24.0638 38.0063 22.2314 38.0063 19.077V18.9062C38.0063 15.7517 39.5359 13.8773 41.9348 13.8773C43.7867 13.8773 44.8012 14.7974 45.0939 16.5216C45.1098 16.6184 45.1915 16.6901 45.2891 16.6901H48.421C48.5402 16.6901 48.6355 16.583 48.6208 16.4646C48.1737 12.8672 45.4922 11.1499 41.9144 11.1499C37.6035 11.1499 34.3762 14.3043 34.3762 18.9278V19.0986C34.3762 23.787 37.0304 26.8561 41.9995 26.8561C45.6613 26.8561 48.3246 24.9942 48.7898 21.3717C48.8046 21.2521 48.7093 21.145 48.5901 21.145Z" fill="white"/>
<path d="M55.2251 15.2211C51.8912 15.2211 49.3641 17.5009 49.3641 20.9959V21.1667C49.3641 24.64 51.8912 26.8572 55.2035 26.8572C58.5374 26.8572 61.0645 24.6195 61.0645 21.1029V20.9321C61.0645 17.4576 58.559 15.2211 55.2251 15.2211ZM57.9428 21.1234C57.9428 23.2336 56.9442 24.5124 55.2251 24.5124C53.4832 24.5124 52.5074 23.2336 52.5074 21.1029V20.9321C52.5074 18.8014 53.5264 17.5647 55.2251 17.5647C56.9454 17.5647 57.9428 18.8435 57.9428 20.9742V21.1234Z" fill="white"/>
<path d="M72.8546 11.6008H70.1948C70.0847 11.6008 69.9962 11.6908 69.9962 11.8001V16.3143C69.355 15.795 68.5346 15.4203 67.4748 15.3383C64.0989 15.0776 61.6138 17.6182 61.6138 21.1131V21.284C61.6138 24.7573 64.1363 27.2023 67.4532 26.9745C68.4291 26.9073 69.287 26.4461 69.9962 25.7867V26.6249C69.9962 26.7354 70.0858 26.8242 70.1948 26.8242H72.8546C72.9647 26.8242 73.0532 26.7342 73.0532 26.6249V11.8001C73.0532 11.6897 72.9647 11.6008 72.8546 11.6008ZM69.9939 21.3113C69.9939 23.4215 69.1939 24.6309 67.4736 24.6309C65.7318 24.6309 64.7559 23.352 64.7559 21.2213V21.0505C64.7559 18.9198 65.7749 17.6831 67.4736 17.6831C69.1939 17.6831 69.9939 19.0303 69.9939 21.1621V21.3113Z" fill="white"/>
<path d="M79.4316 15.2211C76.2043 15.2211 73.7192 17.5009 73.7192 21.0175V21.1883C73.7192 24.747 76.1612 26.8572 79.5167 26.8572C82.4534 26.8572 84.3371 25.6023 84.7853 23.3429C84.8092 23.2211 84.7127 23.1072 84.5879 23.1072H82.0721C81.9802 23.1072 81.9042 23.1709 81.8804 23.2598C81.6455 24.1116 80.9465 24.6628 79.6018 24.6628C77.9246 24.6628 76.926 23.5969 76.8409 21.7429H84.648C84.7581 21.7429 84.8466 21.6529 84.8466 21.5436V20.8911C84.8477 16.9042 82.2991 15.2211 79.4316 15.2211ZM76.8841 19.8445C77.1178 18.2673 78.0517 17.3517 79.4327 17.3517C80.8977 17.3517 81.7476 18.1614 81.8543 19.8445H76.8841Z" fill="white"/>
<path d="M91.6065 10.6477C91.2275 10.5475 90.828 10.4974 90.2436 10.4974C87.7801 10.4974 86.2936 11.7979 86.2936 14.3977V15.6766H85.0272C84.9171 15.6766 84.8286 15.7666 84.8286 15.8759V17.6718C84.8286 17.7822 84.9183 17.871 85.0272 17.871H86.2936V26.6215C86.2936 26.732 86.3832 26.8208 86.4922 26.8208H89.152C89.2621 26.8208 89.3506 26.7308 89.3506 26.6215V17.871H91.5509C91.661 17.871 91.7495 17.7811 91.7495 17.6718V15.8759C91.7495 15.7654 91.6598 15.6766 91.5509 15.6766H89.3506V14.3123C89.3506 13.4605 89.7546 12.8421 90.71 12.8421C91.0278 12.8421 91.2808 12.874 91.4998 12.9321C91.6269 12.9651 91.7506 12.8718 91.7506 12.7408V10.8424C91.7517 10.7513 91.6927 10.6716 91.6065 10.6477Z" fill="white"/>
<path d="M94.2369 13.9627C95.2355 13.9627 96.0003 13.2385 96.0003 12.2796C96.0003 11.3207 95.2355 10.5965 94.2369 10.5965C93.2599 10.5965 92.4962 11.3207 92.4962 12.2796C92.4962 13.2385 93.2599 13.9627 94.2369 13.9627Z" fill="white"/>
<path d="M95.5882 15.6766H92.9283C92.8182 15.6766 92.7297 15.7665 92.7297 15.8759V26.6215C92.7297 26.732 92.8194 26.8208 92.9283 26.8208H95.5882C95.6982 26.8208 95.7868 26.7308 95.7868 26.6215V15.8759C95.7868 15.7654 95.6982 15.6766 95.5882 15.6766Z" fill="white"/>
<path d="M34.7677 7.09125V7.04684C34.7677 5.84769 35.5904 5.01068 36.6968 5.01068C37.608 5.01068 38.3138 5.46847 38.4035 6.4057H37.6534C37.5694 5.87616 37.2755 5.60285 36.7025 5.60285C36.0024 5.60285 35.5462 6.14947 35.5462 7.04228V7.0867C35.5462 7.9852 35.974 8.51474 36.7082 8.51474C37.2585 8.51474 37.6477 8.23573 37.7249 7.67203H38.4477C38.3309 8.63203 37.6523 9.11716 36.7082 9.11716C35.4622 9.11602 34.7677 8.31887 34.7677 7.09125Z" fill="white"/>
<path d="M39.1911 7.09127V7.04686C39.1911 5.88074 40.0252 5.0164 41.203 5.0164C42.3866 5.0164 43.2047 5.8591 43.2047 7.02978V7.07419C43.2047 8.24031 42.4093 9.11604 41.203 9.11604C39.9854 9.11604 39.1911 8.24031 39.1911 7.09127ZM42.4365 7.07988V7.03547C42.4365 6.21554 41.9803 5.60743 41.2019 5.60743C40.4235 5.60743 39.9627 6.18138 39.9627 7.04117V7.08558C39.9627 7.95561 40.4904 8.51932 41.2132 8.51932C41.9645 8.51932 42.4365 7.94423 42.4365 7.07988Z" fill="white"/>
<path d="M44.1091 5.07202H44.9931L46.6668 7.95544V5.07202H47.3386V9.06006H46.5715L44.782 6.00355V9.06006H44.1091V5.07202Z" fill="white"/>
<path d="M48.2828 7.82122H48.9943C49.0443 8.22321 49.2054 8.55802 49.8783 8.55802C50.3174 8.55802 50.6284 8.31318 50.6284 7.94421C50.6284 7.57638 50.4445 7.43631 49.8 7.3304C48.8491 7.20172 48.3997 6.91247 48.3997 6.16428C48.3997 5.51175 48.9557 5.02094 49.7841 5.02094C50.6397 5.02094 51.1515 5.41154 51.2287 6.17567H50.5512C50.4786 5.75773 50.2392 5.57894 49.7841 5.57894C49.3336 5.57894 49.101 5.79645 49.101 6.10392C49.101 6.42734 49.2338 6.58905 49.9237 6.68926C50.8576 6.81795 51.341 7.08556 51.341 7.88271C51.341 8.5751 50.7577 9.11602 49.8794 9.11602C48.7935 9.11602 48.3384 8.5751 48.2828 7.82122Z" fill="white"/>
<path d="M52.3055 5.07202H54.7906V5.65736H53.0453V6.7506H54.4467V7.30861H53.0453V8.47473H54.8848V9.06006H52.3055V5.07202Z" fill="white"/>
<path d="M55.8289 5.07202H56.7129L58.3866 7.95544V5.07202H59.0584V9.06006H58.2913L56.5018 6.00355V9.06006H55.8289V5.07202Z" fill="white"/>
<path d="M60.0025 7.82122H60.714C60.7639 8.22321 60.925 8.55802 61.5979 8.55802C62.0371 8.55802 62.348 8.31318 62.348 7.94421C62.348 7.57638 62.1642 7.43631 61.5196 7.3304C60.5687 7.20172 60.1194 6.91247 60.1194 6.16428C60.1194 5.51175 60.6754 5.02094 61.5038 5.02094C62.3594 5.02094 62.8711 5.41154 62.9483 6.17567H62.2708C62.1982 5.75773 61.9599 5.57894 61.5038 5.57894C61.0533 5.57894 60.8206 5.79645 60.8206 6.10392C60.8206 6.42734 60.9534 6.58905 61.6433 6.68926C62.5772 6.81795 63.0606 7.08556 63.0606 7.88271C63.0606 8.5751 62.4774 9.11602 61.5991 9.11602C60.5143 9.11602 60.0581 8.5751 60.0025 7.82122Z" fill="white"/>
<path d="M64.7889 7.33138L63.4715 5.07202H64.2885L65.1838 6.72327L66.0564 5.07202H66.7793L65.5345 7.33707V9.0612H64.7901V7.33138H64.7889Z" fill="white"/>
<path d="M67.1945 7.82122H67.906C67.956 8.22321 68.1171 8.55802 68.79 8.55802C69.2291 8.55802 69.5401 8.31318 69.5401 7.94421C69.5401 7.57638 69.3562 7.43631 68.7117 7.3304C67.7608 7.20172 67.3114 6.91247 67.3114 6.16428C67.3114 5.51175 67.8674 5.02094 68.6958 5.02094C69.5514 5.02094 70.0632 5.41154 70.1404 6.17567H69.4629C69.3903 5.75773 69.152 5.57894 68.6958 5.57894C68.2453 5.57894 68.0127 5.79645 68.0127 6.10392C68.0127 6.42734 68.1455 6.58905 68.8354 6.68926C69.7693 6.81795 70.2527 7.08556 70.2527 7.88271C70.2527 8.5751 69.6694 9.11602 68.7911 9.11602C67.7052 9.11602 67.2501 8.5751 67.1945 7.82122Z" fill="white"/>
<path d="M15.9433 0C7.13759 0 0 7.16299 0 16C0 24.837 7.13759 32 15.9433 32C24.7489 32 31.8865 24.837 31.8865 16C31.8865 7.16413 24.7478 0 15.9433 0ZM25.7487 20.7191C23.9898 24.361 20.2712 26.872 15.9682 26.8732C9.95972 26.8732 5.08709 21.9695 5.10411 15.9396C5.11206 13.0972 6.20369 10.5099 7.98638 8.57395C8.06808 8.48512 8.21106 8.58762 8.15206 8.69352C7.42355 9.9906 6.99688 11.5542 6.99688 13.2373C6.99688 17.7264 10.0221 21.3671 13.7532 21.3671C16.1033 21.3671 18.173 19.922 19.3827 17.731C19.4088 17.6843 19.4655 17.6649 19.5143 17.6877L25.6987 20.5825C25.7509 20.6041 25.7736 20.6668 25.7487 20.7191ZM25.6987 11.3583L19.4043 14.3043C19.3543 14.3283 19.2965 14.3066 19.2704 14.2577C18.6133 12.9845 17.2482 12.1384 15.697 12.2488C13.8621 12.3786 12.3813 13.8716 12.2576 15.713C12.1418 17.4417 13.2006 18.9381 14.7121 19.4813C14.745 19.4927 14.7325 19.5177 14.6928 19.5189C14.6576 19.52 14.6213 19.52 14.585 19.52C11.2635 19.52 8.56964 16.2801 8.56964 12.283C8.56964 12.1976 8.57078 12.1133 8.57305 12.029C8.68199 8.24484 11.7628 5.22363 15.5313 5.07559C15.6755 5.06989 15.8196 5.06762 15.9648 5.06762C20.2689 5.06762 23.9875 7.57865 25.7464 11.2216C25.7736 11.2717 25.7509 11.3344 25.6987 11.3583Z" fill="white"/>
</svg>
